<?xml version="1.0" standalone="no"?>
<!DOCTYPE svg PUBLIC "-//W3C//DTD SVG 20010904//EN"
 "http://www.w3.org/TR/2001/REC-SVG-20010904/DTD/svg10.dtd">
<svg version="1.0" xmlns="http://www.w3.org/2000/svg"
 width="256.000000pt" height="256.000000pt" viewBox="0 0 256.000000 256.000000"
 preserveAspectRatio="xMidYMid meet">

<g transform="translate(0.000000,256.000000) scale(0.100000,-0.100000)"
fill="#000000" stroke="none">
<path d="M1246 2124 c-12 -32 -5 -42 52 -63 330 -126 644 -446 774 -789 16
-40 18 -42 42 -31 25 12 26 15 26 103 0 435 -365 796 -804 796 -67 0 -85 -3
-90 -16z"/>
<path d="M919 2028 c-19 -11 -58 -38 -86 -60 l-53 -40 0 -62 0 -62 103 -11
c445 -50 807 -381 896 -820 12 -56 21 -124 21 -152 l0 -51 59 0 c55 0 61 2 90
36 18 20 48 60 67 89 l36 53 -17 84 c-98 476 -474 871 -941 986 -130 32 -137
33 -175 10z"/>
<path d="M586 1930 c-75 -95 -134 -211 -172 -335 -25 -83 -28 -104 -28 -260 0
-202 15 -273 93 -430 120 -242 333 -421 597 -501 81 -25 104 -28 254 -28 131
-1 180 3 240 18 150 38 304 119 410 214 l45 40 -24 26 -24 25 -45 -39 c-100
-88 -218 -152 -359 -192 -66 -19 -102 -23 -233 -23 -132 0 -167 3 -235 23
-301 87 -540 325 -625 622 -31 108 -38 299 -16 409 32 156 95 289 196 410 l49
59 -23 21 c-12 11 -25 21 -29 21 -4 0 -36 -36 -71 -80z"/>
<path d="M739 1676 c-230 -82 -289 -368 -108 -530 49 -45 83 -60 179 -80 116
-24 183 -73 232 -170 29 -56 35 -157 13 -216 -9 -25 -19 -52 -21 -60 -8 -25
90 -76 170 -90 37 -6 70 -10 71 -8 17 17 48 150 52 218 16 274 -171 520 -436
575 -93 20 -100 23 -107 52 -9 33 20 63 60 63 17 0 65 -9 106 -21 321 -88 539
-430 477 -745 l-14 -72 73 -21 73 -21 58 21 c32 12 59 23 61 24 1 1 7 41 12
88 41 357 -160 733 -482 902 -167 88 -369 127 -469 91z"/>
<path d="M768 925 c-38 -21 -64 -92 -49 -138 17 -52 52 -79 110 -85 45 -4 52
-1 85 29 87 80 36 210 -81 209 -21 -1 -50 -7 -65 -15z"/>
</g>
</svg>
